# xmcd
#
# Track frame offsets:
#	150
#	16397
#	38396
#	51295
#	60418
#	69557
#	81313
#	91573
#	103530
#	109071
#	120546
#	131573
#	141745
#	155536
#	172387
#	183919
#	196155
#
# Disc length: 2748 seconds
#
# Revision: 0
# Processed by: cddbd v1.5.1PL0 Copyright (c) Steve Scherf et al.
# Submitted via: dBpowerAMP V4.0
#
DISCID=e50aba11
DTITLE=Willie Nelson - Always On My Mind [CD1)
DYEAR=1995
DGENRE=Country
TTITLE0=You're Always On My Mind
TTITLE1=City Of New Orleans
TTITLE2=To All The Girls I've Loved Before
TTITLE3=Right From Wrong
TTITLE4=Waiting Time
TTITLE5=I'll Stay Around
TTITLE6=Broken Promises
TTITLE7=Hapiness Lives Next Door
TTITLE8=The Ghost
TTITLE9=I'm Gonna Lose A Lot Of Teardrops
TTITLE10=Go Away
TTITLE11=Pride Wins Again
TTITLE12=No Tomorrow In Sight
TTITLE13=I Let My Mind Wonder
TTITLE14=December Days
TTITLE15=I Can't Find The Time
TTITLE16=I Didn't Sleep A Wink
EXTD=
EXTT0=
EXTT1=
EXTT2=
EXTT3=
EXTT4=
EXTT5=
EXTT6=
EXTT7=
EXTT8=
EXTT9=
EXTT10=
EXTT11=
EXTT12=
EXTT13=
EXTT14=
EXTT15=
EXTT16=
PLAYORDER=
